<svg width="512" height="512" viewBox="0 0 512 512" fill="none" xmlns="http://www.w3.org/2000/svg">
<rect width="512" height="512" rx="8" fill="url(#paint0_linear_22_74)"/>
<path d="M313.364 324.564V214.018" stroke="#F5F5F5" stroke-width="20" stroke-linecap="round" stroke-linejoin="round"/>
<path d="M251.182 324.564V147.691" stroke="#F5F5F5" stroke-width="20" stroke-linecap="round" stroke-linejoin="round"/>
<path d="M189 324.564V258.236" stroke="#F5F5F5" stroke-width="20" stroke-linecap="round" stroke-linejoin="round"/>
<line x1="337" y1="93" x2="409.545" y2="93" stroke="#F5F5F5" stroke-width="20"/>
<line x1="409" y1="93" x2="430" y2="93" stroke="#F5F5F5" stroke-width="20"/>
<line x1="420" y1="103" x2="420" y2="175.545" stroke="#F5F5F5" stroke-width="20"/>
<line x1="96.0909" y1="175.545" x2="96.0909" y2="103" stroke="#F5F5F5" stroke-width="20"/>
<line x1="96" y1="103" x2="96" y2="83" stroke="#F5F5F5" stroke-width="20"/>
<line x1="106" y1="93" x2="178.545" y2="93" stroke="#F5F5F5" stroke-width="20"/>
<line x1="424" y1="326" x2="424" y2="398.545" stroke="#F5F5F5" stroke-width="20"/>
<line x1="413.545" y1="408" x2="341" y2="408" stroke="#F5F5F5" stroke-width="20"/>
<line x1="434" y1="408" x2="413" y2="408" stroke="#F5F5F5" stroke-width="20"/>
<line x1="178.545" y1="408" x2="106" y2="408" stroke="#F5F5F5" stroke-width="20"/>
<line x1="106" y1="408" x2="86" y2="408" stroke="#F5F5F5" stroke-width="20"/>
<line x1="96" y1="398.545" x2="96" y2="326" stroke="#F5F5F5" stroke-width="20"/>
<defs>
<linearGradient id="paint0_linear_22_74" x1="256" y1="0" x2="256" y2="512" gradientUnits="userSpaceOnUse">
<stop stop-color="#9333EA"/>
<stop offset="0.5" stop-color="#C03EC2"/>
<stop offset="1" stop-color="#FB923C"/>
</linearGradient>
</defs>
</svg>
