<svg width="52" height="48" viewBox="0 0 52 48" fill="none" xmlns="http://www.w3.org/2000/svg">
<rect width="51.2" height="48" rx="8" fill="black"/>
<path d="M32 31.4667V20.8" stroke="#F5F5F5" stroke-width="3" stroke-linecap="round" stroke-linejoin="round"/>
<path d="M26 31.4667V14.4" stroke="#F5F5F5" stroke-width="3" stroke-linecap="round" stroke-linejoin="round"/>
<path d="M20 31.4667V25.0667" stroke="#F5F5F5" stroke-width="3" stroke-linecap="round" stroke-linejoin="round"/>
<line x1="33" y1="8.5" x2="40" y2="8.5" stroke="#F5F5F5" stroke-width="3"/>
<line x1="40" y1="8.5" x2="43" y2="8.5" stroke="#F5F5F5" stroke-width="3"/>
<line x1="41.5" y1="10" x2="41.5" y2="17" stroke="#F5F5F5" stroke-width="3"/>
<line x1="10.5" y1="17" x2="10.5" y2="10" stroke="#F5F5F5" stroke-width="3"/>
<line x1="10.5" y1="10" x2="10.5" y2="7" stroke="#F5F5F5" stroke-width="3"/>
<line x1="12" y1="8.5" x2="19" y2="8.5" stroke="#F5F5F5" stroke-width="3"/>
<line x1="41.5" y1="30" x2="41.5" y2="37" stroke="#F5F5F5" stroke-width="3"/>
<line x1="41.5" y1="37" x2="41.5" y2="40" stroke="#F5F5F5" stroke-width="3"/>
<line x1="40" y1="38.5" x2="33" y2="38.5" stroke="#F5F5F5" stroke-width="3"/>
<line x1="19" y1="38.5" x2="12" y2="38.5" stroke="#F5F5F5" stroke-width="3"/>
<line x1="12" y1="38.5" x2="9" y2="38.5" stroke="#F5F5F5" stroke-width="3"/>
<line x1="10.5" y1="37" x2="10.5" y2="30" stroke="#F5F5F5" stroke-width="3"/>
</svg>
